<svg width="24" height="25" viewBox="0 0 24 25" fill="none" xmlns="http://www.w3.org/2000/svg">
<g clip-path="url(#clip0_3_18)">
<path d="M24 12.5C24 5.59644 18.6274 0 12 0C5.37258 0 0 5.59644 0 12.5C0 19.4036 5.37258 25 12 25C18.6274 25 24 19.4036 24 12.5Z" fill="#419FD9"/>
<path d="M24 12.5C24 5.59644 18.6274 0 12 0C5.37258 0 0 5.59644 0 12.5C0 19.4036 5.37258 25 12 25C18.6274 25 24 19.4036 24 12.5Z" fill="url(#paint0_linear_3_18)"/>
<path d="M5.3937 12.2244C8.88335 10.6074 11.2103 9.54141 12.3746 9.0263C15.6989 7.55573 16.3897 7.30026 16.84 7.29177C16.939 7.29 17.1604 7.31609 17.3038 7.43984C17.4249 7.54438 17.4582 7.68557 17.4742 7.78464C17.4901 7.88375 17.51 8.10948 17.4942 8.28583C17.314 10.299 16.5346 15.1843 16.138 17.4391C15.9702 18.3931 15.6398 18.713 15.3199 18.7443C14.6248 18.8123 14.0969 18.2557 13.4236 17.7863C12.37 17.0518 11.7749 16.5945 10.7522 15.8778C9.57035 15.0495 10.3365 14.5942 11.01 13.8502C11.1863 13.6555 14.2491 10.6924 14.3084 10.4237C14.3158 10.3901 14.3227 10.2647 14.2527 10.1986C14.1827 10.1324 14.0794 10.1551 14.0049 10.173C13.8992 10.1985 12.2161 11.3817 8.95565 13.7226C8.4779 14.0715 8.0452 14.2414 7.6575 14.2325C7.2301 14.2227 6.40795 13.9755 5.79675 13.7642C5.0471 13.505 4.45127 13.368 4.50315 12.9279C4.53017 12.6986 4.82701 12.4641 5.3937 12.2244Z" fill="white"/>
</g>
<defs>
<linearGradient id="paint0_linear_3_18" x1="12" y1="0" x2="12" y2="24.8146" gradientUnits="userSpaceOnUse">
<stop stop-color="#2AABEE"/>
<stop offset="1" stop-color="#229ED9"/>
</linearGradient>
<clipPath id="clip0_3_18">
<rect width="24" height="25" fill="white"/>
</clipPath>
</defs>
</svg>
